<mxfile host="app.diagrams.net" agent="Mozilla/5.0 (Windows NT 10.0; Win64; x64) AppleWebKit/537.36 (KHTML, like Gecko) Chrome/137.0.0.0 Safari/537.36 Edg/137.0.0.0" version="27.1.3">
  <diagram name="Page-1" id="qzJ1ZgekrqFO4QPwIchf">
    <mxGraphModel dx="1034" dy="621" grid="1" gridSize="10" guides="1" tooltips="1" connect="1" arrows="1" fold="1" page="1" pageScale="1" pageWidth="850" pageHeight="1100" math="0" shadow="0">
      <root>
        <mxCell id="0" />
        <mxCell id="1" parent="0" />
        <mxCell id="uTB3WUqCn_t8H4z0RkLB-1" value="" style="rounded=0;whiteSpace=wrap;html=1;dashed=1;fillColor=none;" vertex="1" parent="1">
          <mxGeometry x="140" y="230" width="150" height="410" as="geometry" />
        </mxCell>
        <mxCell id="uTB3WUqCn_t8H4z0RkLB-2" value="&lt;font style=&quot;font-size: 15px;&quot;&gt;Sourses&lt;/font&gt;" style="rounded=1;whiteSpace=wrap;html=1;strokeColor=none;" vertex="1" parent="1">
          <mxGeometry x="155" y="200" width="120" height="50" as="geometry" />
        </mxCell>
        <mxCell id="uTB3WUqCn_t8H4z0RkLB-3" value="&lt;font style=&quot;font-size: 14px;&quot;&gt;Bronze Layer&lt;/font&gt;" style="rounded=1;whiteSpace=wrap;html=1;fillColor=none;strokeColor=default;" vertex="1" parent="1">
          <mxGeometry x="367.5" y="217.5" width="160" height="32.5" as="geometry" />
        </mxCell>
        <mxCell id="uTB3WUqCn_t8H4z0RkLB-19" style="edgeStyle=orthogonalEdgeStyle;rounded=0;orthogonalLoop=1;jettySize=auto;html=1;entryX=0;entryY=0.5;entryDx=0;entryDy=0;" edge="1" parent="1" source="uTB3WUqCn_t8H4z0RkLB-4" target="uTB3WUqCn_t8H4z0RkLB-9">
          <mxGeometry relative="1" as="geometry" />
        </mxCell>
        <mxCell id="uTB3WUqCn_t8H4z0RkLB-20" style="edgeStyle=orthogonalEdgeStyle;rounded=0;orthogonalLoop=1;jettySize=auto;html=1;entryX=0;entryY=0.5;entryDx=0;entryDy=0;" edge="1" parent="1" source="uTB3WUqCn_t8H4z0RkLB-4" target="uTB3WUqCn_t8H4z0RkLB-12">
          <mxGeometry relative="1" as="geometry" />
        </mxCell>
        <mxCell id="uTB3WUqCn_t8H4z0RkLB-21" style="edgeStyle=orthogonalEdgeStyle;rounded=0;orthogonalLoop=1;jettySize=auto;html=1;entryX=0;entryY=0.5;entryDx=0;entryDy=0;" edge="1" parent="1" source="uTB3WUqCn_t8H4z0RkLB-4" target="uTB3WUqCn_t8H4z0RkLB-14">
          <mxGeometry relative="1" as="geometry" />
        </mxCell>
        <mxCell id="uTB3WUqCn_t8H4z0RkLB-4" value="CRM" style="image;aspect=fixed;html=1;points=[];align=center;fontSize=12;image=img/lib/azure2/general/Folder_Blank.svg;" vertex="1" parent="1">
          <mxGeometry x="180.5" y="317" width="69" height="56.00000000000001" as="geometry" />
        </mxCell>
        <mxCell id="uTB3WUqCn_t8H4z0RkLB-22" style="edgeStyle=orthogonalEdgeStyle;rounded=0;orthogonalLoop=1;jettySize=auto;html=1;entryX=0;entryY=0.5;entryDx=0;entryDy=0;" edge="1" parent="1" source="uTB3WUqCn_t8H4z0RkLB-5" target="uTB3WUqCn_t8H4z0RkLB-18">
          <mxGeometry relative="1" as="geometry" />
        </mxCell>
        <mxCell id="uTB3WUqCn_t8H4z0RkLB-23" style="edgeStyle=orthogonalEdgeStyle;rounded=0;orthogonalLoop=1;jettySize=auto;html=1;entryX=0;entryY=0.5;entryDx=0;entryDy=0;" edge="1" parent="1" source="uTB3WUqCn_t8H4z0RkLB-5" target="uTB3WUqCn_t8H4z0RkLB-16">
          <mxGeometry relative="1" as="geometry" />
        </mxCell>
        <mxCell id="uTB3WUqCn_t8H4z0RkLB-24" style="edgeStyle=orthogonalEdgeStyle;rounded=0;orthogonalLoop=1;jettySize=auto;html=1;entryX=0;entryY=0.5;entryDx=0;entryDy=0;" edge="1" parent="1" source="uTB3WUqCn_t8H4z0RkLB-5" target="uTB3WUqCn_t8H4z0RkLB-17">
          <mxGeometry relative="1" as="geometry" />
        </mxCell>
        <mxCell id="uTB3WUqCn_t8H4z0RkLB-5" value="ERP" style="image;aspect=fixed;html=1;points=[];align=center;fontSize=12;image=img/lib/azure2/general/Folder_Blank.svg;" vertex="1" parent="1">
          <mxGeometry x="180.5" y="487" width="69" height="56.00000000000001" as="geometry" />
        </mxCell>
        <mxCell id="uTB3WUqCn_t8H4z0RkLB-8" value="" style="rounded=1;whiteSpace=wrap;html=1;dashed=1;fillColor=none;" vertex="1" parent="1">
          <mxGeometry x="365" y="255" width="165" height="365" as="geometry" />
        </mxCell>
        <mxCell id="uTB3WUqCn_t8H4z0RkLB-9" value="crm_cust_info" style="rounded=1;whiteSpace=wrap;html=1;" vertex="1" parent="1">
          <mxGeometry x="377.5" y="290" width="140" height="30" as="geometry" />
        </mxCell>
        <mxCell id="uTB3WUqCn_t8H4z0RkLB-12" value="crm_sales_details" style="rounded=1;whiteSpace=wrap;html=1;" vertex="1" parent="1">
          <mxGeometry x="377.5" y="370" width="140" height="30" as="geometry" />
        </mxCell>
        <mxCell id="uTB3WUqCn_t8H4z0RkLB-14" value="crm_prd_info" style="rounded=1;whiteSpace=wrap;html=1;" vertex="1" parent="1">
          <mxGeometry x="377.5" y="330" width="140" height="30" as="geometry" />
        </mxCell>
        <mxCell id="uTB3WUqCn_t8H4z0RkLB-16" value="erp_CUST_AZ12" style="rounded=1;whiteSpace=wrap;html=1;" vertex="1" parent="1">
          <mxGeometry x="377.5" y="460" width="140" height="30" as="geometry" />
        </mxCell>
        <mxCell id="uTB3WUqCn_t8H4z0RkLB-17" value="erp_PX_CAT_G1V2" style="rounded=1;whiteSpace=wrap;html=1;" vertex="1" parent="1">
          <mxGeometry x="377.5" y="540" width="140" height="30" as="geometry" />
        </mxCell>
        <mxCell id="uTB3WUqCn_t8H4z0RkLB-18" value="erp_LOC_A101" style="rounded=1;whiteSpace=wrap;html=1;" vertex="1" parent="1">
          <mxGeometry x="377.5" y="500" width="140" height="30" as="geometry" />
        </mxCell>
        <mxCell id="uTB3WUqCn_t8H4z0RkLB-26" value="" style="rounded=1;whiteSpace=wrap;html=1;dashed=1;fillColor=none;" vertex="1" parent="1">
          <mxGeometry x="620" y="255" width="165" height="365" as="geometry" />
        </mxCell>
        <mxCell id="uTB3WUqCn_t8H4z0RkLB-27" value="" style="rounded=1;whiteSpace=wrap;html=1;" vertex="1" parent="1">
          <mxGeometry x="632.5" y="290" width="140" height="30" as="geometry" />
        </mxCell>
        <mxCell id="uTB3WUqCn_t8H4z0RkLB-28" value="" style="rounded=1;whiteSpace=wrap;html=1;" vertex="1" parent="1">
          <mxGeometry x="632.5" y="370" width="140" height="30" as="geometry" />
        </mxCell>
        <mxCell id="uTB3WUqCn_t8H4z0RkLB-29" value="" style="rounded=1;whiteSpace=wrap;html=1;" vertex="1" parent="1">
          <mxGeometry x="632.5" y="330" width="140" height="30" as="geometry" />
        </mxCell>
        <mxCell id="uTB3WUqCn_t8H4z0RkLB-30" value="" style="rounded=1;whiteSpace=wrap;html=1;" vertex="1" parent="1">
          <mxGeometry x="632.5" y="460" width="140" height="30" as="geometry" />
        </mxCell>
        <mxCell id="uTB3WUqCn_t8H4z0RkLB-31" value="" style="rounded=1;whiteSpace=wrap;html=1;" vertex="1" parent="1">
          <mxGeometry x="632.5" y="540" width="140" height="30" as="geometry" />
        </mxCell>
        <mxCell id="uTB3WUqCn_t8H4z0RkLB-32" value="" style="rounded=1;whiteSpace=wrap;html=1;" vertex="1" parent="1">
          <mxGeometry x="632.5" y="500" width="140" height="30" as="geometry" />
        </mxCell>
        <mxCell id="uTB3WUqCn_t8H4z0RkLB-33" value="&lt;span style=&quot;font-size: 14px;&quot;&gt;Selver Layer&lt;/span&gt;" style="rounded=1;whiteSpace=wrap;html=1;fillColor=none;strokeColor=default;" vertex="1" parent="1">
          <mxGeometry x="622.5" y="217.5" width="160" height="32.5" as="geometry" />
        </mxCell>
      </root>
    </mxGraphModel>
  </diagram>
</mxfile>
